<?xml version="1.0" standalone="no"?>
<!DOCTYPE svg PUBLIC "-//W3C//DTD SVG 1.1//EN" "http://www.w3.org/Graphics/SVG/1.1/DTD/svg11.dtd">
<svg xmlns="http://www.w3.org/2000/svg" xmlns:xlink="http://www.w3.org/1999/xlink" xml:space="preserve" width="8200" height="3800" version="1.1" style="shape-rendering:geometricPrecision; text-rendering:geometricPrecision; image-rendering:optimizeQuality; fill-rule:evenodd; clip-rule:evenodd" viewBox="0 0 8200 3800">
 <defs>
  <style type="text/css">
   <![CDATA[
    .fil35 {fill:#FEFEFE}
    .fil12 {fill:#FFED00}
    .fil16 {fill:#A75F4A}
    .fil23 {fill:#E5097F}
    .fil34 {fill:#E51A4B}
    .fil19 {fill:#E31E24}
    .fil8 {fill:#A82682}
    .fil27 {fill:#7E71B1}
    .fil4 {fill:#007DC4}
    .fil30 {fill:#0060AA}
    .fil10 {fill:url(#id0)}
    .fil7 {fill:url(#id1)}
    .fil26 {fill:url(#id2)}
    .fil28 {fill:url(#id3)}
    .fil20 {fill:url(#id4)}
    .fil18 {fill:url(#id5)}
    .fil33 {fill:url(#id6)}
    .fil29 {fill:url(#id7)}
    .fil1 {fill:url(#id8)}
    .fil3 {fill:url(#id9)}
    .fil32 {fill:url(#id10)}
    .fil2 {fill:url(#id11)}
    .fil9 {fill:url(#id12)}
    .fil15 {fill:url(#id13)}
    .fil0 {fill:url(#id14)}
    .fil11 {fill:url(#id15)}
    .fil5 {fill:url(#id16)}
    .fil21 {fill:url(#id17)}
    .fil17 {fill:url(#id18)}
    .fil6 {fill:url(#id19)}
    .fil24 {fill:url(#id20)}
    .fil22 {fill:url(#id21)}
    .fil25 {fill:url(#id22)}
    .fil14 {fill:url(#id23)}
    .fil31 {fill:url(#id24)}
    .fil13 {fill:url(#id25)}
   ]]>
  </style>
  <linearGradient id="id0" gradientUnits="userSpaceOnUse" x1="5807.95" y1="1031.05" x2="5951.6" y2="1101.91">
   <stop offset="0" style="stop-opacity:1; stop-color:#61A375"/>
   <stop offset="1" style="stop-opacity:1; stop-color:#DBE285"/>
  </linearGradient>
  <linearGradient id="id1" gradientUnits="userSpaceOnUse" x1="6253.51" y1="1298.18" x2="6818.04" y2="1058.86">
   <stop offset="0" style="stop-opacity:1; stop-color:#009846"/>
   <stop offset="1" style="stop-opacity:1; stop-color:#B0CB1F"/>
  </linearGradient>
  <linearGradient id="id2" gradientUnits="userSpaceOnUse" x1="181.35" y1="1666.34" x2="425.83" y2="1863.02">
   <stop offset="0" style="stop-opacity:1; stop-color:#E51859"/>
   <stop offset="1" style="stop-opacity:1; stop-color:#F5B5D2"/>
  </linearGradient>
  <linearGradient id="id3" gradientUnits="userSpaceOnUse" x1="1840.52" y1="1161.85" x2="1651.22" y2="723.59">
   <stop offset="0" style="stop-opacity:1; stop-color:#B7CBD8"/>
   <stop offset="1" style="stop-opacity:1; stop-color:#D2CDE7"/>
  </linearGradient>
  <linearGradient id="id4" gradientUnits="userSpaceOnUse" x1="1243.25" y1="1505.55" x2="1326.37" y2="1188.07">
   <stop offset="0" style="stop-opacity:1; stop-color:#393185"/>
   <stop offset="1" style="stop-opacity:1; stop-color:#A2D9F7"/>
  </linearGradient>
  <linearGradient id="id5" gradientUnits="userSpaceOnUse" x1="3862.09" y1="820.96" x2="4441.97" y2="471.14">
   <stop offset="0" style="stop-opacity:1; stop-color:#EF7F1A"/>
   <stop offset="1" style="stop-opacity:1; stop-color:#FFFBDB"/>
  </linearGradient>
  <linearGradient id="id6" gradientUnits="userSpaceOnUse" x1="3034.31" y1="857" x2="2496.11" y2="461.92">
   <stop offset="0" style="stop-opacity:1; stop-color:#EF7F1A"/>
   <stop offset="1" style="stop-opacity:1; stop-color:#FFF7B2"/>
  </linearGradient>
  <linearGradient id="id7" gradientUnits="userSpaceOnUse" xlink:href="#id3" x1="2132.43" y1="1297.4" x2="2064.67" y2="1092.27">
  </linearGradient>
  <linearGradient id="id8" gradientUnits="userSpaceOnUse" xlink:href="#id3" x1="7749.28" y1="2289.17" x2="7958.16" y2="1984.67">
  </linearGradient>
  <linearGradient id="id9" gradientUnits="userSpaceOnUse" xlink:href="#id3" x1="6909.6" y1="1760.65" x2="7342.2" y2="1463.33">
  </linearGradient>
  <linearGradient id="id10" gradientUnits="userSpaceOnUse" xlink:href="#id6" x1="2541.65" y1="1209.83" x2="2440.19" y2="1140.29">
  </linearGradient>
  <linearGradient id="id11" gradientUnits="userSpaceOnUse" xlink:href="#id3" x1="7368.53" y1="1915.15" x2="7577.37" y2="1610.65">
  </linearGradient>
  <linearGradient id="id12" gradientUnits="userSpaceOnUse" xlink:href="#id0" x1="5903.23" y1="744.93" x2="6003.69" y2="788.35">
  </linearGradient>
  <linearGradient id="id13" gradientUnits="userSpaceOnUse" x1="5155.66" y1="675.07" x2="5543.22" y2="714.07">
   <stop offset="0" style="stop-opacity:1; stop-color:#FCD5A6"/>
   <stop offset="1" style="stop-opacity:1; stop-color:#F08143"/>
  </linearGradient>
  <linearGradient id="id14" gradientUnits="userSpaceOnUse" xlink:href="#id3" x1="7244.32" y1="2325.92" x2="7451.44" y2="2228.26">
  </linearGradient>
  <linearGradient id="id15" gradientUnits="userSpaceOnUse" xlink:href="#id0" x1="5801.45" y1="718.41" x2="6379.25" y2="909.75">
  </linearGradient>
  <linearGradient id="id16" gradientUnits="userSpaceOnUse" xlink:href="#id1" x1="6614.75" y1="1386.9" x2="6784.23" y2="1349.34">
  </linearGradient>
  <linearGradient id="id17" gradientUnits="userSpaceOnUse" xlink:href="#id4" x1="1591.02" y1="1641.65" x2="1605.12" y2="1521.73">
  </linearGradient>
  <linearGradient id="id18" gradientUnits="userSpaceOnUse" xlink:href="#id5" x1="3780.28" y1="413.7" x2="4121.62" y2="173.26">
  </linearGradient>
  <linearGradient id="id19" gradientUnits="userSpaceOnUse" xlink:href="#id1" x1="6615.02" y1="1791.7" x2="6730.58" y2="1764.5">
  </linearGradient>
  <linearGradient id="id20" gradientUnits="userSpaceOnUse" xlink:href="#id2" x1="500.75" y1="1679.76" x2="693.59" y2="1980.92">
  </linearGradient>
  <linearGradient id="id21" gradientUnits="userSpaceOnUse" xlink:href="#id4" x1="756.45" y1="1958.28" x2="1222.77" y2="914.7">
  </linearGradient>
  <linearGradient id="id22" gradientUnits="userSpaceOnUse" xlink:href="#id2" x1="549.58" y1="2189.8" x2="655.92" y2="2280.1">
  </linearGradient>
  <linearGradient id="id23" gradientUnits="userSpaceOnUse" xlink:href="#id13" x1="4960.17" y1="545.55" x2="5064.31" y2="566.65">
  </linearGradient>
  <linearGradient id="id24" gradientUnits="userSpaceOnUse" xlink:href="#id6" x1="2666.11" y1="788.16" x2="2505.85" y2="718.94">
  </linearGradient>
  <linearGradient id="id25" gradientUnits="userSpaceOnUse" xlink:href="#id13" x1="4617.8" y1="866.99" x2="4782.14" y2="952.81">
  </linearGradient>
 </defs>
 <g id="Warstwa_x0020_1">
  <metadata id="CorelCorpID_0Corel-Layer"/>
  <g id="_2244090014976">
   <polygon class="fil0" points="7434,2087 7324,2116 7262,2467 7360,2389 "/>
   <path class="fil1" d="M7936 1941l-299 148 -92 267 615 -81 2 -257 -31 -61c-52,-57 -118,-42 -195,-16z"/>
   <path class="fil2" d="M7555 1567l-298 148 -92 267 614 -81 2 -257 -31 -61c-52,-57 -118,-42 -195,-16z"/>
   <path class="fil3" d="M7147 1243l-271 564 -40 242 577 -501 3 -257 -31 -61c-52,-57 -178,-92 -238,13z"/>
   <path class="fil4" d="M7582 2653l525 -289c3,-4 7,-4 10,-8 5,-1 7,-3 10,-7 4,-3 7,-7 7,-10 4,-4 5,-9 7,-11 9,-16 14,-32 19,-51 3,-18 1,-37 -5,-57 -2,-12 -6,-22 -11,-35 -7,-10 -15,-24 -22,-31 -3,-3 -3,-7 -7,-10 0,0 -4,-4 -5,-6 -27,-25 -56,-39 -91,-42 -33,-5 -68,3 -103,21l-326 173 170 -341c13,-28 18,-51 20,-74 -1,-21 -3,-40 -15,-59 -2,-9 -8,-14 -13,-23 -6,-5 -11,-14 -18,-21 -22,-21 -48,-32 -78,-37 -32,0 -62,6 -95,23l-332 183 161 -335c17,-36 21,-69 16,-102 -5,-35 -19,-63 -46,-89 -2,-2 -4,-4 -5,-5 -4,-4 -7,-4 -11,-7 -7,-7 -20,-16 -30,-19 -13,-5 -25,-10 -37,-12 -18,-3 -37,-4 -55,-1 -19,3 -35,8 -51,17 -1,2 -8,6 -12,9 -2,2 -7,7 -10,11 -2,2 -5,5 -7,7 -4,4 -7,7 -9,13l-266 530c-26,48 -34,96 -28,136 8,46 30,84 67,117 32,31 71,51 112,59 42,7 81,2 119,-16l265 -131 -123 268c-17,39 -22,79 -12,119 7,42 31,79 61,112 36,34 75,55 119,59 43,10 88,-1 134,-27l1 -1z"/>
   <polygon class="fil5" points="6591,1321 6586,1422 6730,1525 6813,1279 6781,1211 "/>
   <path class="fil6" d="M6594 1734l91 153 71 -56 -46 -97 -98 -65c-23,48 -27,16 -18,65z"/>
   <path class="fil7" d="M6086 1207c-49,35 -62,70 -59,110l91 231 671 -452 256 74 -134 -236c-59,-125 -225,-151 -323,-99l-502 372z"/>
   <path class="fil8" d="M6143 1578c-20,-24 -34,-50 -35,-77 -3,-24 1,-51 15,-74 6,-11 14,-18 26,-28 7,-8 17,-16 29,-26l469 -341c43,-29 90,-44 141,-46 46,-1 93,12 138,39 47,28 82,63 103,104 22,45 29,93 24,145l-73 575c-3,16 -5,29 -8,39 -4,15 -9,24 -15,34 -14,24 -33,42 -56,51 -27,10 -56,10 -86,4 -6,-1 -8,-2 -14,-2 -2,-2 -5,-1 -10,-3 -5,-1 -11,-4 -18,-8 -8,-2 -14,-6 -20,-10 -28,-16 -48,-36 -62,-65 -15,-29 -20,-61 -15,-93l9 -44 -280 -166 -35 25c-28,21 -58,33 -88,35 -34,0 -62,-8 -89,-25 -9,-5 -18,-13 -25,-17 -9,-8 -17,-16 -25,-26zm585 -78l57 -238 -181 164 124 74z"/>
   <polygon class="fil9" points="6047,738 6020,850 5860,811 5905,683 "/>
   <polygon class="fil10" points="6008,1053 5970,1168 5751,1094 5796,965 "/>
   <path class="fil11" d="M6241 1281l124 -129c53,-53 52,-157 -6,-229 62,-25 115,-90 128,-173 12,-96 -55,-232 -141,-281l-306 -117c-57,-19 -200,22 -236,31l-112 73 68 53 439 171 -21 554 63 47z"/>
   <path class="fil12" d="M5552 1246c-44,-17 -73,-44 -92,-79 -16,-35 -17,-75 -1,-118l199 -541c13,-35 39,-63 78,-78 38,-14 78,-15 120,0l210 78c5,1 10,3 15,5 3,2 8,3 13,5 1,0 9,3 10,7 5,2 11,4 15,8 82,41 136,92 169,155 30,63 36,124 13,185 0,2 -2,7 -4,12 -2,5 -3,9 -6,12 -11,23 -27,41 -41,58 -16,14 -31,28 -47,38l0 3 16 15 13 15 6 8c17,30 30,62 34,96 3,33 -2,64 -14,97 -1,3 -3,7 -5,15 -1,2 -3,6 -6,13 -10,21 -22,38 -38,52 -17,15 -36,30 -56,43 -10,4 -20,10 -30,16 -9,5 -22,8 -30,11 -35,10 -68,13 -106,12 -36,-4 -77,-12 -119,-27l-316 -116zm368 -121c9,5 21,4 32,0 10,-4 18,-12 21,-22 0,0 0,0 1,-1 0,0 0,0 1,-3 3,-9 4,-27 0,-36 -6,-8 -17,-18 -24,-21l-140 -51 -30 82 139 52zm36 -313c20,13 55,4 62,-25 2,-20 -7,-42 -36,-56l-64 -24 -30 80 68 25z"/>
   <path class="fil13" d="M4847 950c-29,43 -160,89 -222,42l-147 -85 242 -99 202 33c-18,49 -34,81 -75,109z"/>
   <polygon class="fil14" points="5134,625 5065,700 4891,669 5008,438 5079,413 "/>
   <path class="fil15" d="M5560 1037c24,114 -123,194 -184,155l-212 -84 -8 -782 -20 -139 202 102c63,45 118,80 137,183l85 565z"/>
   <path class="fil16" d="M5265 1124c31,-2 59,-10 79,-28 20,-15 36,-37 43,-63 3,-12 3,-22 2,-38 0,-10 -2,-23 -3,-39l-85 -573c-10,-52 -32,-96 -66,-133 -32,-34 -74,-58 -125,-72 -53,-13 -102,-13 -147,0 -47,16 -86,45 -119,85l-360 455c-8,14 -16,24 -21,33 -9,13 -11,23 -14,35 -7,27 -6,52 3,76 11,26 31,46 58,64 4,3 6,4 10,8 3,0 5,3 9,4 5,4 12,6 19,8 7,4 14,6 21,8 31,8 60,8 90,-2 31,-10 57,-29 77,-54l25 -37 315 82 7 43c3,35 16,64 36,87 24,25 49,39 80,47 10,2 22,3 30,5 12,1 22,1 36,-1zm-354 -471l129 -208 10 245 -139 -37z"/>
   <path class="fil17" d="M3993 496l271 -216 -380 -189 -209 191c-60,101 -55,219 73,214l245 0z"/>
   <path class="fil18" d="M3682 832l311 -336 271 -216 -159 501 532 49 -242 145c-23,25 -78,41 -129,37l-481 -3c-126,-2 -133,-145 -103,-177z"/>
   <path class="fil19" d="M4684 193c0,7 -4,16 -7,23 -6,7 -9,13 -13,20l-353 401 237 0c17,0 33,2 49,9 16,5 30,14 41,26 12,9 19,20 26,36 7,14 11,28 11,42 0,14 -4,27 -11,41 -7,14 -17,28 -28,37 -14,12 -25,18 -41,25 -14,5 -30,7 -47,7l-518 0c-4,0 -11,0 -16,0 -4,0 -9,-2 -16,-4 -32,-7 -55,-21 -76,-42 -18,-23 -27,-43 -27,-69 0,-4 0,-9 2,-11 0,-5 0,-7 2,-12 0,-2 0,-7 3,-11 2,-3 4,-7 4,-10 5,-6 9,-11 12,-16 4,-7 7,-11 11,-16l350 -391 -306 0c-35,-2 -65,-12 -88,-35 -25,-20 -36,-48 -36,-78 0,-30 11,-55 36,-76 26,-23 56,-34 90,-34l578 0c42,0 74,11 99,34 25,21 37,46 37,76 0,2 0,5 0,5 0,2 -2,2 -2,4 0,3 0,5 0,7 0,5 -3,7 -3,9l0 3z"/>
   <polygon class="fil20" points="1162,1429 1246,1484 1408,1412 1237,1216 1162,1209 "/>
   <polygon class="fil21" points="1500,1589 1696,1631 1684,1541 1576,1532 "/>
   <path class="fil22" d="M757 1740c4,60 29,89 64,106l299 108 -52 -807 193 -184 -262 -43c-137,-12 -277,80 -281,190l39 630z"/>
   <path class="fil23" d="M1157 1945c-30,6 -59,5 -83,-8 -23,-10 -44,-27 -57,-51 -6,-10 -9,-20 -12,-36 -2,-10 -4,-23 -7,-39l-58 -576c-3,-52 7,-100 31,-145 23,-41 58,-75 104,-100 48,-26 95,-38 142,-36 50,3 94,22 137,52l460 354c12,10 22,19 29,26 11,11 16,20 22,30 14,24 19,50 16,74 -5,28 -19,53 -40,77 -4,4 -6,5 -9,10 -2,1 -3,5 -7,7 -4,5 -10,8 -17,12 -5,6 -11,9 -18,13 -28,15 -56,22 -88,20 -33,-2 -62,-14 -87,-34l-34 -30 -285 158 4 43c5,35 0,66 -14,93 -17,30 -38,50 -66,66 -9,4 -21,8 -27,12 -12,4 -22,6 -36,8zm228 -544l-176 -169 50 239 126 -70z"/>
   <path class="fil24" d="M570 1602l-62 25 -266 385 78 73 633 -63 -83 -306c-14,-132 -234,-174 -300,-114z"/>
   <polygon class="fil25" points="685,2057 470,2238 468,2413 723,2181 738,2087 "/>
   <path class="fil26" d="M407 1398c-162,-15 -321,149 -332,286l-35 448 337 -288 190 -181c-40,-105 -55,-255 -160,-265z"/>
   <path class="fil27" d="M369 1587c6,-4 9,-8 15,-7 6,-5 10,-5 17,-6 23,-11 44,-14 62,-13 20,2 37,9 53,21 2,1 2,1 4,3 0,0 0,0 2,1 0,0 0,0 2,2 10,7 19,20 23,26 7,12 12,22 14,32 8,22 9,41 9,59 -5,19 -12,32 -25,50 -4,6 -9,12 -13,18 -5,6 -11,11 -18,15l-45 41 -43 36 -28 26 -13 9c-5,2 -8,6 -9,8 -3,4 -5,6 -10,9 -6,8 -12,12 -16,18 -6,8 -11,11 -16,17 -2,7 -7,13 -9,21 -3,4 -4,9 -7,13 -3,4 -6,8 -5,12 -2,2 -1,5 -1,9 -3,4 -3,4 -2,7 -2,2 -1,6 -1,6 -1,5 1,10 2,13 2,5 4,7 8,10 2,1 8,2 11,2 2,1 9,0 11,-2 3,0 3,0 6,-4 0,0 4,-1 5,-3l21 -15 14 -11 57 -48 11 -10 70 -57c20,-19 41,-35 59,-46 20,-10 36,-20 51,-27 38,-18 78,-26 116,-19 38,3 74,17 104,39 6,5 12,9 18,14 8,6 12,12 17,18 15,18 28,37 39,60 11,24 18,51 22,79 8,40 4,83 -7,131 -12,50 -33,99 -61,149 -5,6 -9,12 -12,16 -3,4 -6,8 -10,14 -3,8 -6,12 -9,16 -3,4 -7,10 -12,16 -14,20 -30,36 -45,56 -18,17 -34,34 -53,47 -45,35 -79,56 -106,64 -29,10 -54,10 -80,3 -7,-2 -13,-7 -21,-9 -4,-3 -10,-8 -16,-12 -10,-8 -16,-16 -25,-25 -6,-8 -11,-18 -15,-30 -4,-19 -6,-41 -3,-58 4,-18 12,-37 27,-57 6,-8 15,-20 24,-29 11,-10 22,-21 35,-30l10 -5 31 -26 15 -11 28 -25 14 -15 11 -7c0,-3 0,-3 1,-5 2,-2 2,-2 5,-3 0,0 2,-2 2,-2 1,-2 3,-4 3,-4 0,0 1,-2 1,-2 2,-2 2,-2 3,-4 0,0 0,0 0,0 2,-2 2,-2 3,-4 6,-8 8,-15 11,-23 3,-4 4,-9 3,-16 1,-2 0,-9 -2,-11 -2,-5 -3,-8 -7,-11 -3,0 -5,-1 -9,-1 -2,-1 -3,1 -5,-1 -5,3 -7,5 -12,8 -1,2 -4,6 -8,6l-52 45 -31 26 -10 9 -60 51c-20,16 -36,29 -54,40 -18,12 -34,21 -49,29 -48,27 -96,37 -141,35 -44,-2 -86,-17 -120,-43 -6,-4 -12,-8 -18,-13 -6,-4 -10,-11 -16,-15 -15,-18 -27,-39 -38,-62 -12,-21 -19,-45 -25,-75 -8,-52 -4,-108 10,-168 17,-56 49,-116 96,-180 6,-8 11,-14 17,-22 5,-8 11,-16 19,-22 36,-45 73,-82 102,-108 31,-26 55,-45 77,-54l2 1z"/>
   <path class="fil28" d="M1583 632l-92 184 456 517 53 -268 -171 -470c-33,-75 -203,-42 -246,37z"/>
   <path class="fil29" d="M2250 1233l-26 139 -277 -39 56 -275 111 -37c101,-27 139,113 136,212z"/>
   <path class="fil30" d="M1899 1535c-14,5 -104,6 -122,0 -21,-6 -67,-45 -81,-85l-203 -556c-6,-16 -7,-34 -6,-53 1,-19 5,-36 15,-53 11,-20 24,-35 39,-46 16,-14 33,-25 52,-32 0,0 4,-2 4,-2 3,-1 5,-2 7,-2 17,-4 35,-8 54,-7 16,2 34,7 52,13 18,7 35,16 48,30 13,14 22,32 28,48l170 468 106 -39c32,-12 86,-2 98,1 15,5 53,37 65,69l0 0c12,33 0,82 -6,93 -9,11 -70,62 -75,64l-245 89z"/>
   <polygon class="fil31" points="2687,751 2666,850 2500,912 2485,653 2533,595 "/>
   <path class="fil32" d="M2576 1147l-128 123 -54 -73 70 -81 112 -36c9,52 21,22 0,67z"/>
   <path class="fil33" d="M3206 776c38,46 41,84 28,121l-149 199 -528 -612 -268 5 192 -193c90,-105 257,-87 338,-11l387 491z"/>
   <path class="fil34" d="M3052 1114c26,-17 46,-38 54,-64 9,-23 12,-50 5,-76 -4,-12 -9,-21 -17,-34 -5,-9 -14,-20 -22,-33l-363 -451c-34,-40 -76,-67 -124,-82 -45,-13 -94,-13 -144,1 -53,15 -95,40 -126,74 -34,38 -53,82 -62,133l-80 575c-1,16 -2,29 -2,39 -1,16 2,26 5,38 8,26 22,48 41,63 23,17 51,25 82,26 6,1 8,1 14,2 2,-1 5,1 10,-1 5,2 13,0 20,-2 8,0 15,-2 22,-4 31,-9 55,-23 77,-47 22,-24 34,-54 38,-86l3 -45 314 -87 28 34c20,28 46,46 75,56 33,9 62,9 93,0 9,-2 21,-8 28,-10 11,-6 20,-11 31,-19zm-544 -228l7 -245 132 206 -139 39z"/>
   <polygon class="fil35" points="1190,3770 6106,2220 6033,2403 "/>
   <path class="fil35" d="M5131 1959c-30,71 -59,133 -88,186 -30,52 -53,87 -72,103 -4,5 -10,10 -19,16 -9,7 -15,11 -18,15 -5,5 -11,11 -18,19 -26,28 -45,43 -56,46 -18,6 -38,0 -60,-18 -22,-17 -34,-33 -36,-49 -1,-8 0,-31 3,-71 3,-40 8,-81 15,-125 12,-77 24,-141 37,-193 13,-51 25,-86 36,-105 6,-10 14,-19 23,-27 9,-7 14,-11 14,-11 3,-3 6,-8 12,-16 23,-29 44,-47 62,-52 14,-4 29,3 45,23 16,19 25,34 26,44 1,9 -8,48 -27,118l-4 17c-7,25 -17,57 -29,97 -21,74 -31,117 -29,129 1,7 3,12 6,14 3,3 8,3 14,1 22,-6 59,-76 110,-209 29,-73 52,-131 70,-173 6,-15 20,-32 43,-53 22,-20 38,-31 46,-34 14,-4 27,1 37,15 11,14 18,35 21,63 5,33 3,85 -4,155 -7,70 -9,118 -6,145 2,15 6,30 13,46 6,16 10,26 10,31 3,17 -10,44 -39,80 -28,37 -52,58 -71,63 -13,4 -27,-1 -43,-14 -17,-14 -25,-26 -27,-38 -1,-6 0,-51 2,-137 0,-42 1,-75 1,-101z"/>
   <path class="fil35" d="M4519 2158c-33,42 -64,95 -92,158 -28,63 -44,99 -48,105 -12,18 -32,39 -62,63 -30,24 -51,37 -65,40 -21,3 -41,-5 -62,-25 -20,-19 -31,-37 -31,-54 0,-13 10,-27 28,-42 18,-16 31,-29 37,-39 14,-19 24,-47 32,-84 7,-36 11,-78 11,-125 0,-13 -2,-22 -6,-26 -3,-4 -11,-5 -24,-3 -15,2 -28,2 -36,-2 -9,-5 -13,-11 -13,-21 0,-16 11,-34 33,-54 22,-20 47,-33 73,-39 17,-4 35,-12 52,-24 17,-12 28,-19 34,-20 14,-2 24,3 30,16 7,13 10,34 10,62 0,25 -4,55 -10,92 -7,36 -19,87 -37,154 5,-10 12,-25 22,-43 41,-82 71,-135 90,-158 -4,-11 -7,-23 -9,-34 -2,-12 -3,-24 -3,-38 0,-29 4,-55 12,-78 7,-23 17,-41 30,-53 25,-21 47,-39 64,-53 18,-14 29,-21 33,-21 14,-3 28,8 42,31 14,23 21,42 21,57 0,3 -7,19 -21,47 -14,27 -21,51 -21,70 0,12 6,23 19,35 12,12 18,28 18,49 0,10 -1,18 -3,24 -1,6 -4,11 -9,16 -4,6 -18,15 -42,28 -23,12 -39,19 -46,20 -8,2 -17,0 -27,-6 -10,-6 -18,-14 -24,-25z"/>
   <path class="fil35" d="M3714 2312l-13 2c-18,3 -29,3 -34,1 -5,-2 -7,-7 -7,-15 0,-7 10,-22 30,-44 20,-22 47,-48 81,-79 53,-116 89,-190 106,-221 18,-32 32,-51 42,-57 3,-1 10,-3 18,-6 9,-3 16,-6 22,-9 5,-3 13,-8 22,-14 18,-13 31,-20 40,-21 10,-2 18,-1 24,4 6,4 11,11 15,22 1,5 2,10 3,15 1,5 1,8 1,10 0,7 -13,36 -40,87 -27,51 -50,102 -70,153 11,-1 26,-2 46,-3 39,-3 59,2 60,17 0,12 -9,30 -26,54 -7,9 -11,16 -14,20 -2,3 -4,7 -6,11 -11,19 -28,31 -52,35 -1,0 -10,1 -25,3 -16,2 -31,5 -45,7 -18,34 -31,65 -40,93 -9,28 -13,52 -13,71 0,22 5,37 15,46 11,10 26,12 46,9 20,-3 43,-12 71,-27 27,-15 43,-23 50,-24 10,-1 18,0 23,5 7,5 10,13 10,22 0,21 -29,53 -85,98 -56,44 -116,71 -179,82 -39,6 -72,-5 -101,-34 -28,-28 -42,-63 -42,-104 0,-16 10,-48 27,-96 18,-49 31,-86 40,-113z"/>
   <path class="fil35" d="M1719 3020c-16,-19 -28,-34 -35,-45 -8,-11 -12,-19 -12,-23 0,-6 7,-14 20,-24 12,-11 40,-30 82,-58 38,-99 87,-226 145,-382 100,-271 166,-409 198,-414 9,-1 17,1 23,7 6,6 9,15 9,27 0,9 -2,23 -6,44 -4,21 -7,37 -8,47 -2,17 -4,35 -6,56 -1,20 -2,33 -3,39 -4,27 -28,102 -72,224 -43,122 -78,226 -105,311 122,-59 222,-142 300,-249 77,-106 116,-211 116,-313 0,-103 -43,-179 -130,-230 -87,-51 -201,-65 -342,-41 -89,14 -169,39 -240,73 -72,34 -122,71 -150,110 -11,14 -21,32 -33,54 -13,26 -28,41 -44,43 -13,2 -25,0 -35,-7 -11,-7 -17,-15 -17,-24l0 -18c0,-19 2,-33 4,-43 3,-9 7,-19 13,-29 15,-20 37,-44 69,-70 31,-26 69,-54 113,-83 72,-46 142,-84 211,-112 70,-29 138,-49 206,-60 166,-28 302,-6 406,65 105,70 158,175 158,313 0,115 -28,223 -84,323 -56,100 -134,183 -234,249 -11,8 -55,29 -130,65 -75,37 -142,74 -203,114 -38,101 -62,170 -73,205 -11,35 -17,60 -17,75 0,5 2,11 6,19 4,7 6,13 6,16 0,8 -4,16 -13,23 -9,8 -27,17 -53,30 -19,8 -40,19 -65,34 -24,15 -40,23 -47,24 -11,2 -20,0 -26,-5 -7,-6 -11,-14 -11,-24 0,-10 7,-37 21,-82 14,-45 44,-129 88,-254z"/>
   <path class="fil35" d="M3316 2239c3,-16 18,-34 45,-54 26,-20 46,-32 60,-34 18,-3 43,12 75,43 32,32 47,69 47,109 0,7 0,16 -2,27 -1,11 -3,23 -6,38 0,49 -8,94 -23,137 -16,42 -41,84 -74,126 -42,54 -90,99 -144,136 -54,37 -103,59 -148,67 -42,7 -76,0 -102,-22 -26,-21 -39,-48 -39,-82 0,-82 29,-169 86,-260 57,-91 132,-168 225,-231zm14 104c-37,58 -67,118 -90,180 -22,63 -34,111 -34,145 0,16 4,28 10,36 7,8 16,11 27,10 24,-4 55,-30 92,-76 38,-46 68,-99 91,-159 -27,-14 -49,-33 -66,-57 -17,-24 -27,-50 -30,-79z"/>
   <path class="fil35" d="M2643 2980c-28,5 -52,-2 -70,-21 -19,-18 -28,-45 -28,-80 0,-12 4,-31 11,-56 7,-25 18,-59 34,-101 13,-33 29,-76 49,-128 30,-81 48,-125 55,-133 8,-11 26,-23 52,-37 14,-7 24,-12 31,-16 6,-4 16,-12 31,-22 14,-11 25,-17 32,-18 10,-2 18,1 24,7 6,7 9,17 9,31 0,15 -11,44 -33,88 -15,32 -28,58 -36,78 -19,44 -34,83 -44,118 -10,35 -15,63 -15,82 0,14 3,25 10,32 8,8 17,11 28,9 11,-2 28,-12 51,-32 23,-19 38,-29 47,-30 8,-2 15,0 20,5 6,5 9,11 9,19 0,14 -14,37 -43,69 -28,33 -58,55 -90,68 -24,10 -49,24 -76,40 -27,17 -46,26 -58,28zm95 -622c-9,2 -16,-2 -23,-11 -6,-8 -10,-19 -10,-32 0,-8 8,-24 24,-51 7,-12 13,-22 17,-29 9,-15 27,-30 56,-46 28,-16 53,-26 76,-29 13,-2 23,0 31,6 7,7 11,16 11,29 0,8 -2,19 -6,34 -5,14 -10,30 -18,48 -6,16 -26,32 -57,48 -31,16 -65,27 -101,33z"/>
   <path class="fil35" d="M5708 1365c-5,1 -9,2 -11,1 -3,-1 -4,-4 -5,-7 0,-6 7,-29 23,-68 15,-39 35,-80 58,-124 9,-17 18,-29 28,-37 11,-7 31,-15 61,-24l61 -17c18,-5 30,-8 36,-8 7,0 11,3 11,7 1,7 -21,38 -65,92 -12,15 -21,25 -27,33 -13,16 -28,37 -47,62 -35,46 -64,73 -86,79l-37 11zm2 218c-4,7 -7,14 -8,20 -2,6 -2,12 -2,18 2,12 22,40 62,83 40,44 62,85 66,123 7,54 -16,111 -68,172 -51,62 -113,103 -186,124 -45,13 -82,17 -109,12 -28,-6 -43,-20 -45,-43 -3,-24 8,-55 32,-94 25,-38 46,-60 65,-65 19,-6 40,6 63,35 24,29 43,41 58,37 8,-3 14,-7 17,-13 3,-7 4,-15 3,-25 -7,-56 -30,-104 -71,-143 -40,-39 -62,-69 -64,-90 -2,-16 0,-33 6,-52 7,-18 18,-39 35,-64 31,-46 65,-88 103,-125 38,-37 67,-58 85,-63 14,-5 29,-4 45,3 15,6 23,14 25,26 5,41 4,73 -3,94 -7,21 -20,35 -41,41 -13,4 -25,5 -38,3 -12,-2 -22,-7 -30,-14z"/>
   <polygon class="fil30" points="1150,3730 6066,2180 5993,2363 "/>
   <path class="fil19" d="M5091 1919c-30,71 -59,133 -88,186 -30,52 -53,87 -72,103 -4,5 -10,10 -19,16 -9,7 -15,11 -18,15 -5,5 -11,11 -18,19 -26,28 -45,43 -56,46 -18,6 -38,0 -60,-18 -22,-17 -34,-33 -36,-49 -1,-8 0,-31 3,-71 3,-40 8,-81 15,-125 12,-77 24,-141 37,-193 13,-51 25,-86 36,-105 6,-10 14,-19 23,-27 9,-7 14,-11 14,-11 3,-3 6,-8 12,-16 23,-29 44,-47 62,-52 14,-4 29,3 45,23 16,19 25,34 26,44 1,9 -8,48 -27,118l-4 17c-7,25 -17,57 -29,97 -21,74 -31,117 -29,129 1,7 3,12 6,14 3,3 8,3 14,1 22,-6 59,-76 110,-209 29,-73 52,-131 70,-173 6,-15 20,-32 43,-53 22,-20 38,-31 46,-34 14,-4 27,1 37,15 11,14 18,35 21,63 5,33 3,85 -4,155 -7,70 -9,118 -6,145 2,15 6,30 13,46 6,16 10,26 10,31 3,17 -10,44 -39,80 -28,37 -52,58 -71,63 -13,4 -27,-1 -43,-14 -17,-14 -25,-26 -27,-38 -1,-6 0,-51 2,-137 0,-42 1,-75 1,-101z"/>
   <path class="fil19" d="M4479 2118c-33,42 -64,95 -92,158 -28,63 -44,99 -48,105 -12,18 -32,39 -62,63 -30,24 -51,37 -65,40 -21,3 -41,-5 -62,-25 -20,-19 -31,-37 -31,-54 0,-13 10,-27 28,-42 18,-16 31,-29 37,-39 14,-19 24,-47 32,-84 7,-36 11,-78 11,-125 0,-13 -2,-22 -6,-26 -3,-4 -11,-5 -24,-3 -15,2 -28,2 -36,-2 -9,-5 -13,-11 -13,-21 0,-16 11,-34 33,-54 22,-20 47,-33 73,-39 17,-4 35,-12 52,-24 17,-12 28,-19 34,-20 14,-2 24,3 30,16 7,13 10,34 10,62 0,25 -4,55 -10,92 -7,36 -19,87 -37,154 5,-10 12,-25 22,-43 41,-82 71,-135 90,-158 -4,-11 -7,-23 -9,-34 -2,-12 -3,-24 -3,-38 0,-29 4,-55 12,-78 7,-23 17,-41 30,-53 25,-21 47,-39 64,-53 18,-14 29,-21 33,-21 14,-3 28,8 42,31 14,23 21,42 21,57 0,3 -7,19 -21,47 -14,27 -21,51 -21,70 0,12 6,23 19,35 12,12 18,28 18,49 0,10 -1,18 -3,24 -1,6 -4,11 -9,16 -4,6 -18,15 -42,28 -23,12 -39,19 -46,20 -8,2 -17,0 -27,-6 -10,-6 -18,-14 -24,-25z"/>
   <path class="fil19" d="M3674 2272l-13 2c-18,3 -29,3 -34,1 -5,-2 -7,-7 -7,-15 0,-7 10,-22 30,-44 20,-22 47,-48 81,-79 53,-116 89,-190 106,-221 18,-32 32,-51 42,-57 3,-1 10,-3 18,-6 9,-3 16,-6 22,-9 5,-3 13,-8 22,-14 18,-13 31,-20 40,-21 10,-2 18,-1 24,4 6,4 11,11 15,22 1,5 2,10 3,15 1,5 1,8 1,10 0,7 -13,36 -40,87 -27,51 -50,102 -70,153 11,-1 26,-2 46,-3 39,-3 59,2 60,17 0,12 -9,30 -26,54 -7,9 -11,16 -14,20 -2,3 -4,7 -6,11 -11,19 -28,31 -52,35 -1,0 -10,1 -25,3 -16,2 -31,5 -45,7 -18,34 -31,65 -40,93 -9,28 -13,52 -13,71 0,22 5,37 15,46 11,10 26,12 46,9 20,-3 43,-12 71,-27 27,-15 43,-23 50,-24 10,-1 18,0 23,5 7,5 10,13 10,22 0,21 -29,53 -85,98 -56,44 -116,71 -179,82 -39,6 -72,-5 -101,-34 -28,-28 -42,-63 -42,-104 0,-16 10,-48 27,-96 18,-49 31,-86 40,-113z"/>
   <path class="fil19" d="M1679 2980c-16,-19 -28,-34 -35,-45 -8,-11 -12,-19 -12,-23 0,-6 7,-14 20,-24 12,-11 40,-30 82,-58 38,-99 87,-226 145,-382 100,-271 166,-409 198,-414 9,-1 17,1 23,7 6,6 9,15 9,27 0,9 -2,23 -6,44 -4,21 -7,37 -8,47 -2,17 -4,35 -6,56 -1,20 -2,33 -3,39 -4,27 -28,102 -72,224 -43,122 -78,226 -105,311 122,-59 222,-142 300,-249 77,-106 116,-211 116,-313 0,-103 -43,-179 -130,-230 -87,-51 -201,-65 -342,-41 -89,14 -169,39 -240,73 -72,34 -122,71 -150,110 -11,14 -21,32 -33,54 -13,26 -28,41 -44,43 -13,2 -25,0 -35,-7 -11,-7 -17,-15 -17,-24l0 -18c0,-19 2,-33 4,-43 3,-9 7,-19 13,-29 15,-20 37,-44 69,-70 31,-26 69,-54 113,-83 72,-46 142,-84 211,-112 70,-29 138,-49 206,-60 166,-28 302,-6 406,65 105,70 158,175 158,313 0,115 -28,223 -84,323 -56,100 -134,183 -234,249 -11,8 -55,29 -130,65 -75,37 -142,74 -203,114 -38,101 -62,170 -73,205 -11,35 -17,60 -17,75 0,5 2,11 6,19 4,7 6,13 6,16 0,8 -4,16 -13,23 -9,8 -27,17 -53,30 -19,8 -40,19 -65,34 -24,15 -40,23 -47,24 -11,2 -20,0 -26,-5 -7,-6 -11,-14 -11,-24 0,-10 7,-37 21,-82 14,-45 44,-129 88,-254z"/>
   <path class="fil19" d="M3276 2199c3,-16 18,-34 45,-54 26,-20 46,-32 60,-34 18,-3 43,12 75,43 32,32 47,69 47,109 0,7 0,16 -2,27 -1,11 -3,23 -6,38 0,49 -8,94 -23,137 -16,42 -41,84 -74,126 -42,54 -90,99 -144,136 -54,37 -103,59 -148,67 -42,7 -76,0 -102,-22 -26,-21 -39,-48 -39,-82 0,-82 29,-169 86,-260 57,-91 132,-168 225,-231zm14 104c-37,58 -67,118 -90,180 -22,63 -34,111 -34,145 0,16 4,28 10,36 7,8 16,11 27,10 24,-4 55,-30 92,-76 38,-46 68,-99 91,-159 -27,-14 -49,-33 -66,-57 -17,-24 -27,-50 -30,-79z"/>
   <path class="fil19" d="M2603 2940c-28,5 -52,-2 -70,-21 -19,-18 -28,-45 -28,-80 0,-12 4,-31 11,-56 7,-25 18,-59 34,-101 13,-33 29,-76 49,-128 30,-81 48,-125 55,-133 8,-11 26,-23 52,-37 14,-7 24,-12 31,-16 6,-4 16,-12 31,-22 14,-11 25,-17 32,-18 10,-2 18,1 24,7 6,7 9,17 9,31 0,15 -11,44 -33,88 -15,32 -28,58 -36,78 -19,44 -34,83 -44,118 -10,35 -15,63 -15,82 0,14 3,25 10,32 8,8 17,11 28,9 11,-2 28,-12 51,-32 23,-19 38,-29 47,-30 8,-2 15,0 20,5 6,5 9,11 9,19 0,14 -14,37 -43,69 -28,33 -58,55 -90,68 -24,10 -49,24 -76,40 -27,17 -46,26 -58,28zm95 -622c-9,2 -16,-2 -23,-11 -6,-8 -10,-19 -10,-32 0,-8 8,-24 24,-51 7,-12 13,-22 17,-29 9,-15 27,-30 56,-46 28,-16 53,-26 76,-29 13,-2 23,0 31,6 7,7 11,16 11,29 0,8 -2,19 -6,34 -5,14 -10,30 -18,48 -6,16 -26,32 -57,48 -31,16 -65,27 -101,33z"/>
   <path class="fil19" d="M5668 1325c-5,1 -9,2 -11,1 -3,-1 -4,-4 -5,-7 0,-6 7,-29 23,-68 15,-39 35,-80 58,-124 9,-17 18,-29 28,-37 11,-7 31,-15 61,-24l61 -17c18,-5 30,-8 36,-8 7,0 11,3 11,7 1,7 -21,38 -65,92 -12,15 -21,25 -27,33 -13,16 -28,37 -47,62 -35,46 -64,73 -86,79l-37 11zm2 218c-4,7 -7,14 -8,20 -2,6 -2,12 -2,18 2,12 22,40 62,83 40,44 62,85 66,123 7,54 -16,111 -68,172 -51,62 -113,103 -186,124 -45,13 -82,17 -109,12 -28,-6 -43,-20 -45,-43 -3,-24 8,-55 32,-94 25,-38 46,-60 65,-65 19,-6 40,6 63,35 24,29 43,41 58,37 8,-3 14,-7 17,-13 3,-7 4,-15 3,-25 -7,-56 -30,-104 -71,-143 -40,-39 -62,-69 -64,-90 -2,-16 0,-33 6,-52 7,-18 18,-39 35,-64 31,-46 65,-88 103,-125 38,-37 67,-58 85,-63 14,-5 29,-4 45,3 15,6 23,14 25,26 5,41 4,73 -3,94 -7,21 -20,35 -41,41 -13,4 -25,5 -38,3 -12,-2 -22,-7 -30,-14z"/>
  </g>
 </g>
</svg>